<svg width="100" height="100" viewBox="0 0 100 100" xmlns="http://www.w3.org/2000/svg">
  <!-- Dark Purple Background Circle -->
  <circle cx="50" cy="50" r="48" fill="#2A1530" />

  <!-- Gold Spiral Pattern -->
  <path d="M 50 5
         A 45 45 0 0 1 95 50
         A 45 45 0 0 1 50 95
         A 45 45 0 0 1 5 50
         A 45 45 0 0 1 50 5"
      stroke="#FFDA00" stroke-width="1.5" fill="none" />

  <path d="M 50 15
         A 35 35 0 0 1 85 50
         A 35 35 0 0 1 50 85
         A 35 35 0 0 1 15 50
         A 35 35 0 0 1 50 15"
      stroke="#FFDA00" stroke-width="1.5" fill="none" />

  <path d="M 50 25
         A 25 25 0 0 1 75 50
         A 25 25 0 0 1 50 75
         A 25 25 0 0 1 25 50
         A 25 25 0 0 1 50 25"
      stroke="#FFDA40" stroke-width="1.5" fill="none" />

  <path d="M 50 35
         A 15 15 0 0 1 65 50
         A 15 15 0 0 1 50 65
         A 15 15 0 0 1 35 50
         A 15 15 0 0 1 50 35"
      stroke="#FFDA80" stroke-width="1.5" fill="none" />

  <!-- Omega Symbol -->
  <g transform="translate(50,50)">
    <path d="M -16 -10
          A 20 20 0 0 1 4 -10
          A 20 20 0 0 1 -6 20
          L 16 20
          L 16 10
          L -6 10
          A 10 10 0 0 0 -6 -0
          A 10 10 0 0 0 -6 -10"
        fill="#FFDA00" />
  </g>

  <!-- Dotted Circle -->
  <circle cx="50" cy="50" r="42" stroke="#FFDA00" stroke-width="1" stroke-dasharray="2,2" fill="none" />

  <!-- Corner Markings -->
  <circle cx="11" cy="11" r="2" fill="#FFDA80" />
  <circle cx="89" cy="11" r="2" fill="#FFDA80" />
  <circle cx="11" cy="89" r="2" fill="#FFDA80" />
  <circle cx="89" cy="89" r="2" fill="#FFDA80" />
</svg> 