<svg width="120" height="120" viewBox="0 0 120 120" xmlns="http://www.w3.org/2000/svg">
  <!-- Dark Purple Background with Gradient -->
  <defs>
    <radialGradient id="bgGradient" cx="50%" cy="50%" r="50%" fx="50%" fy="50%">
      <stop offset="0%" style="stop-color:#3A1D40;stop-opacity:1" />
      <stop offset="100%" style="stop-color:#2A1530;stop-opacity:1" />
    </radialGradient>
    
    <!-- Gold Gradients -->
    <linearGradient id="goldGradient" x1="0%" y1="0%" x2="100%" y2="100%">
      <stop offset="0%" style="stop-color:#FFE566;stop-opacity:1" />
      <stop offset="50%" style="stop-color:#FFDA00;stop-opacity:1" />
      <stop offset="100%" style="stop-color:#E6B800;stop-opacity:1" />
    </linearGradient>
    
    <!-- Glow Filter -->
    <filter id="goldGlow" x="-20%" y="-20%" width="140%" height="140%">
      <feGaussianBlur in="SourceGraphic" stdDeviation="2" result="blur" />
      <feColorMatrix in="blur" mode="matrix" values="1 0 0 0 1  0 1 0 0 0.8  0 0 1 0 0.2  0 0 0 1 0" result="glow" />
      <feBlend in="SourceGraphic" in2="glow" mode="overlay" />
    </filter>
  </defs>

  <!-- Background Circle -->
  <circle cx="60" cy="60" r="56" fill="url(#bgGradient)" />

  <!-- Golden Swirl Pattern -->
  <g filter="url(#goldGlow)">
    <path d="M 60 6
           A 54 54 0 0 1 114 60
           A 54 54 0 0 1 60 114
           A 54 54 0 0 1 6 60
           A 54 54 0 0 1 60 6"
        stroke="url(#goldGradient)" stroke-width="1.5" fill="none" />

    <path d="M 60 18
           A 42 42 0 0 1 102 60
           A 42 42 0 0 1 60 102
           A 42 42 0 0 1 18 60
           A 42 42 0 0 1 60 18"
        stroke="url(#goldGradient)" stroke-width="1.5" fill="none" />

    <path d="M 60 30
           A 30 30 0 0 1 90 60
           A 30 30 0 0 1 60 90
           A 30 30 0 0 1 30 60
           A 30 30 0 0 1 60 30"
        stroke="url(#goldGradient)" stroke-width="1.5" fill="none" />

    <path d="M 60 42
           A 18 18 0 0 1 78 60
           A 18 18 0 0 1 60 78
           A 18 18 0 0 1 42 60
           A 18 18 0 0 1 60 42"
        stroke="url(#goldGradient)" stroke-width="1.5" fill="none" />
  </g>

  <!-- Dotted Circle -->
  <circle cx="60" cy="60" r="50" stroke="url(#goldGradient)" stroke-width="1" stroke-dasharray="2,2" fill="none" />

  <!-- Omega Symbol -->
  <g transform="translate(60,60)" filter="url(#goldGlow)">
    <path d="M -18 -12
          A 23 23 0 0 1 6 -12
          A 23 23 0 0 1 -8 24
          L 18 24
          L 18 13
          L -8 13
          A 12 12 0 0 0 -8 0
          A 12 12 0 0 0 -8 -12"
        fill="url(#goldGradient)" />
  </g>

  <!-- Corner Markings -->
  <circle cx="15" cy="15" r="3" fill="url(#goldGradient)" />
  <circle cx="105" cy="15" r="3" fill="url(#goldGradient)" />
  <circle cx="15" cy="105" r="3" fill="url(#goldGradient)" />
  <circle cx="105" cy="105" r="3" fill="url(#goldGradient)" />
  
  <!-- Connecting Lines -->
  <line x1="15" y1="15" x2="60" y2="6" stroke="url(#goldGradient)" stroke-width="0.5" stroke-dasharray="2,2" />
  <line x1="105" y1="15" x2="60" y2="6" stroke="url(#goldGradient)" stroke-width="0.5" stroke-dasharray="2,2" />
  <line x1="15" y1="105" x2="60" y2="114" stroke="url(#goldGradient)" stroke-width="0.5" stroke-dasharray="2,2" />
  <line x1="105" y1="105" x2="60" y2="114" stroke="url(#goldGradient)" stroke-width="0.5" stroke-dasharray="2,2" />
</svg> 