<svg xmlns="http://www.w3.org/2000/svg" width="400" height="400" viewBox="0 0 400 400">
  <defs>
    <linearGradient id="grid-gradient" x1="0%" y1="0%" x2="100%" y2="100%">
      <stop offset="0%" stop-color="#6b46c1" stop-opacity="0.7"/>
      <stop offset="50%" stop-color="#805ad5" stop-opacity="0.5"/>
      <stop offset="100%" stop-color="#9f7aea" stop-opacity="0.7"/>
    </linearGradient>
    
    <filter id="glow" x="-20%" y="-20%" width="140%" height="140%">
      <feGaussianBlur stdDeviation="2" result="blur"/>
      <feComposite in="SourceGraphic" in2="blur" operator="over"/>
    </filter>
  </defs>
  
  <!-- Background grid -->
  <g stroke="#6b46c1" stroke-width="0.5" stroke-opacity="0.3">
    <!-- Horizontal lines -->
    <line x1="0" y1="40" x2="400" y2="40"/>
    <line x1="0" y1="80" x2="400" y2="80"/>
    <line x1="0" y1="120" x2="400" y2="120"/>
    <line x1="0" y1="160" x2="400" y2="160"/>
    <line x1="0" y1="200" x2="400" y2="200"/>
    <line x1="0" y1="240" x2="400" y2="240"/>
    <line x1="0" y1="280" x2="400" y2="280"/>
    <line x1="0" y1="320" x2="400" y2="320"/>
    <line x1="0" y1="360" x2="400" y2="360"/>
    
    <!-- Vertical lines -->
    <line x1="40" y1="0" x2="40" y2="400"/>
    <line x1="80" y1="0" x2="80" y2="400"/>
    <line x1="120" y1="0" x2="120" y2="400"/>
    <line x1="160" y1="0" x2="160" y2="400"/>
    <line x1="200" y1="0" x2="200" y2="400"/>
    <line x1="240" y1="0" x2="240" y2="400"/>
    <line x1="280" y1="0" x2="280" y2="400"/>
    <line x1="320" y1="0" x2="320" y2="400"/>
    <line x1="360" y1="0" x2="360" y2="400"/>
  </g>
  
  <!-- Quantum nodes -->
  <g filter="url(#glow)">
    <circle cx="40" cy="40" r="3" fill="#805ad5"/>
    <circle cx="40" cy="120" r="3" fill="#805ad5"/>
    <circle cx="40" cy="200" r="3" fill="#805ad5"/>
    <circle cx="40" cy="280" r="3" fill="#805ad5"/>
    <circle cx="40" cy="360" r="3" fill="#805ad5"/>
    
    <circle cx="120" cy="40" r="3" fill="#805ad5"/>
    <circle cx="120" cy="120" r="3" fill="#805ad5"/>
    <circle cx="120" cy="200" r="3" fill="#805ad5"/>
    <circle cx="120" cy="280" r="3" fill="#805ad5"/>
    <circle cx="120" cy="360" r="3" fill="#805ad5"/>
    
    <circle cx="200" cy="40" r="3" fill="#805ad5"/>
    <circle cx="200" cy="120" r="3" fill="#805ad5"/>
    <circle cx="200" cy="200" r="5" fill="#ed8936"/> <!-- Central node is larger and different color -->
    <circle cx="200" cy="280" r="3" fill="#805ad5"/>
    <circle cx="200" cy="360" r="3" fill="#805ad5"/>
    
    <circle cx="280" cy="40" r="3" fill="#805ad5"/>
    <circle cx="280" cy="120" r="3" fill="#805ad5"/>
    <circle cx="280" cy="200" r="3" fill="#805ad5"/>
    <circle cx="280" cy="280" r="3" fill="#805ad5"/>
    <circle cx="280" cy="360" r="3" fill="#805ad5"/>
    
    <circle cx="360" cy="40" r="3" fill="#805ad5"/>
    <circle cx="360" cy="120" r="3" fill="#805ad5"/>
    <circle cx="360" cy="200" r="3" fill="#805ad5"/>
    <circle cx="360" cy="280" r="3" fill="#805ad5"/>
    <circle cx="360" cy="360" r="3" fill="#805ad5"/>
  </g>
  
  <!-- Quantum connections -->
  <g stroke="url(#grid-gradient)" stroke-width="1" stroke-opacity="0.4">
    <!-- Main connections from central node -->
    <line x1="200" y1="200" x2="120" y2="120"/>
    <line x1="200" y1="200" x2="280" y2="120"/>
    <line x1="200" y1="200" x2="120" y2="280"/>
    <line x1="200" y1="200" x2="280" y2="280"/>
    
    <!-- Secondary connections -->
    <line x1="120" y1="120" x2="40" y2="40"/>
    <line x1="280" y1="120" x2="360" y2="40"/>
    <line x1="120" y1="280" x2="40" y2="360"/>
    <line x1="280" y1="280" x2="360" y2="360"/>
    
    <line x1="120" y1="120" x2="120" y2="40"/>
    <line x1="120" y1="120" x2="40" y2="120"/>
    <line x1="280" y1="120" x2="280" y2="40"/>
    <line x1="280" y1="120" x2="360" y2="120"/>
    
    <line x1="120" y1="280" x2="120" y2="360"/>
    <line x1="120" y1="280" x2="40" y2="280"/>
    <line x1="280" y1="280" x2="280" y2="360"/>
    <line x1="280" y1="280" x2="360" y2="280"/>
  </g>
  
  <!-- Animated pulses -->
  <circle cx="200" cy="200" r="0" fill="#ed8936" opacity="0.7">
    <animate attributeName="r" values="0;80" dur="4s" repeatCount="indefinite"/>
    <animate attributeName="opacity" values="0.7;0" dur="4s" repeatCount="indefinite"/>
  </circle>
  
  <!-- Random particles -->
  <g>
    <circle cx="160" cy="160" r="1" fill="#805ad5">
      <animate attributeName="cx" values="160;240;160" dur="7s" repeatCount="indefinite"/>
      <animate attributeName="cy" values="160;240;160" dur="7s" repeatCount="indefinite"/>
    </circle>
    
    <circle cx="240" cy="160" r="1" fill="#805ad5">
      <animate attributeName="cx" values="240;160;240" dur="8s" repeatCount="indefinite"/>
      <animate attributeName="cy" values="160;240;160" dur="8s" repeatCount="indefinite"/>
    </circle>
    
    <circle cx="160" cy="240" r="1" fill="#805ad5">
      <animate attributeName="cx" values="160;240;160" dur="9s" repeatCount="indefinite"/>
      <animate attributeName="cy" values="240;160;240" dur="9s" repeatCount="indefinite"/>
    </circle>
    
    <circle cx="240" cy="240" r="1" fill="#805ad5">
      <animate attributeName="cx" values="240;160;240" dur="6s" repeatCount="indefinite"/>
      <animate attributeName="cy" values="240;160;240" dur="6s" repeatCount="indefinite"/>
    </circle>
  </g>
</svg> 