<?xml version="1.0" encoding="UTF-8"?>
<svg width="1200" height="800" viewBox="0 0 1200 800" xmlns="http://www.w3.org/2000/svg">
  <!-- GPU License Notice: This file is protected under the GPU License 1.0 -->
  
  <!-- Background grid -->
  <defs>
    <pattern id="grid" width="50" height="50" patternUnits="userSpaceOnUse">
      <path d="M 50 0 L 0 0 0 50" fill="none" stroke="rgba(255,255,255,0.05)" stroke-width="0.5"/>
    </pattern>
  </defs>
  <rect width="100%" height="100%" fill="url(#grid)" />
  
  <!-- Central Flower of Life pattern -->
  <g transform="translate(600,400)" fill="none" stroke="rgba(255,215,0,0.15)" stroke-width="0.8">
    <circle r="50" />
    <circle cx="50" cy="0" r="50" />
    <circle cx="25" cy="43.3" r="50" />
    <circle cx="-25" cy="43.3" r="50" />
    <circle cx="-50" cy="0" r="50" />
    <circle cx="-25" cy="-43.3" r="50" />
    <circle cx="25" cy="-43.3" r="50" />
    
    <!-- Second layer -->
    <circle cx="0" cy="86.6" r="50" />
    <circle cx="75" cy="43.3" r="50" />
    <circle cx="75" cy="-43.3" r="50" />
    <circle cx="0" cy="-86.6" r="50" />
    <circle cx="-75" cy="-43.3" r="50" />
    <circle cx="-75" cy="43.3" r="50" />
    
    <!-- Third layer partial -->
    <circle cx="100" cy="0" r="50" />
    <circle cx="50" cy="86.6" r="50" />
    <circle cx="-50" cy="86.6" r="50" />
    <circle cx="-100" cy="0" r="50" />
    <circle cx="-50" cy="-86.6" r="50" />
    <circle cx="50" cy="-86.6" r="50" />
  </g>
  
  <!-- Golden Ratio Spiral (Top Left) -->
  <g transform="translate(300,200) scale(0.8)" fill="none" stroke="rgba(255,215,0,0.2)" stroke-width="1.5">
    <!-- Golden rectangle sequence -->
    <rect x="-89" y="-55" width="144" height="89" />
    <rect x="-89" y="-55" width="89" height="89" />
    <rect x="-55" y="-55" width="55" height="89" />
    <rect x="-55" y="-55" width="55" height="55" />
    <rect x="-55" y="-34" width="34" height="34" />
    <rect x="-34" y="-34" width="21" height="34" />
    <rect x="-34" y="-21" width="21" height="21" />
    <rect x="-21" y="-21" width="13" height="21" />
    
    <!-- Golden spiral arcs -->
    <path d="M 55 34 A 89 89 0 0 1 -34 -55" />
    <path d="M -34 34 A 55 55 0 0 0 0 -21" />
    <path d="M 0 0 A 34 34 0 0 1 -21 -34" />
    <path d="M -21 0 A 21 21 0 0 0 -13 -13" />
  </g>
  
  <!-- Golden Ratio Spiral (Bottom Right) -->
  <g transform="translate(900,600) scale(0.8) rotate(180)" fill="none" stroke="rgba(255,215,0,0.2)" stroke-width="1.5">
    <!-- Golden rectangle sequence -->
    <rect x="-89" y="-55" width="144" height="89" />
    <rect x="-89" y="-55" width="89" height="89" />
    <rect x="-55" y="-55" width="55" height="89" />
    <rect x="-55" y="-55" width="55" height="55" />
    <rect x="-55" y="-34" width="34" height="34" />
    <rect x="-34" y="-34" width="21" height="34" />
    <rect x="-34" y="-21" width="21" height="21" />
    <rect x="-21" y="-21" width="13" height="21" />
    
    <!-- Golden spiral arcs -->
    <path d="M 55 34 A 89 89 0 0 1 -34 -55" />
    <path d="M -34 34 A 55 55 0 0 0 0 -21" />
    <path d="M 0 0 A 34 34 0 0 1 -21 -34" />
    <path d="M -21 0 A 21 21 0 0 0 -13 -13" />
  </g>
  
  <!-- Sacred Geometry - Metatron's Cube -->
  <g transform="translate(600,400) scale(2)" fill="none" stroke="rgba(70,130,180,0.1)" stroke-width="0.5">
    <!-- Circles -->
    <circle cx="0" cy="0" r="20" />
    <circle cx="40" cy="0" r="20" />
    <circle cx="20" cy="34.64" r="20" />
    <circle cx="-20" cy="34.64" r="20" />
    <circle cx="-40" cy="0" r="20" />
    <circle cx="-20" cy="-34.64" r="20" />
    <circle cx="20" cy="-34.64" r="20" />
    
    <!-- Connecting lines -->
    <line x1="0" y1="0" x2="40" y2="0" />
    <line x1="0" y1="0" x2="20" y2="34.64" />
    <line x1="0" y1="0" x2="-20" y2="34.64" />
    <line x1="0" y1="0" x2="-40" y2="0" />
    <line x1="0" y1="0" x2="-20" y2="-34.64" />
    <line x1="0" y1="0" x2="20" y2="-34.64" />
    
    <line x1="40" y1="0" x2="20" y2="34.64" />
    <line x1="20" y1="34.64" x2="-20" y2="34.64" />
    <line x1="-20" y1="34.64" x2="-40" y2="0" />
    <line x1="-40" y1="0" x2="-20" y2="-34.64" />
    <line x1="-20" y1="-34.64" x2="20" y2="-34.64" />
    <line x1="20" y1="-34.64" x2="40" y2="0" />
    
    <!-- Inner lines -->
    <line x1="40" y1="0" x2="-20" y2="34.64" />
    <line x1="40" y1="0" x2="-40" y2="0" />
    <line x1="40" y1="0" x2="-20" y2="-34.64" />
    <line x1="20" y1="34.64" x2="-40" y2="0" />
    <line x1="20" y1="34.64" x2="-20" y2="-34.64" />
    <line x1="20" y1="34.64" x2="20" y2="-34.64" />
    <line x1="-20" y1="34.64" x2="-20" y2="-34.64" />
    <line x1="-20" y1="34.64" x2="20" y2="-34.64" />
    <line x1="-40" y1="0" x2="20" y2="-34.64" />
  </g>
  
  <!-- Merkaba Symbol (Star Tetrahedron) -->
  <g transform="translate(600,400)" fill="none" stroke="rgba(255,255,255,0.1)" stroke-width="0.7">
    <!-- Upward Triangle -->
    <path d="M 0,-100 L 86.6,50 L -86.6,50 Z" />
    
    <!-- Downward Triangle -->
    <path d="M 0,100 L 86.6,-50 L -86.6,-50 Z" />
  </g>
  
  <!-- Vesica Piscis -->
  <g transform="translate(900,200) scale(0.6)" fill="none" stroke="rgba(80,200,120,0.15)" stroke-width="1.5">
    <circle cx="-30" cy="0" r="60" />
    <circle cx="30" cy="0" r="60" />
  </g>
  
  <!-- Vesica Piscis -->
  <g transform="translate(300,600) scale(0.6)" fill="none" stroke="rgba(80,200,120,0.15)" stroke-width="1.5">
    <circle cx="-30" cy="0" r="60" />
    <circle cx="30" cy="0" r="60" />
  </g>
  
  <!-- Sacred Symbols -->
  <g fill="rgba(255,215,0,0.05)">
    <!-- Phi Symbol -->
    <text x="600" y="150" font-family="serif" font-size="100" text-anchor="middle">φ</text>
    
    <!-- Om Symbol -->
    <text x="300" y="400" font-family="serif" font-size="80" text-anchor="middle">ॐ</text>
    
    <!-- Ankh Symbol -->
    <text x="900" y="400" font-family="serif" font-size="80" text-anchor="middle">☥</text>
    
    <!-- Divine Symbols -->
    <text x="600" y="650" font-family="serif" font-size="80" text-anchor="middle">⚜</text>
  </g>
</svg> 